<?xml version="1.0" encoding="UTF-8" standalone="no"?>
<!-- Created with Inkscape (http://www.inkscape.org/) -->

<svg
   width="72.534859mm"
   height="87.112823mm"
   viewBox="0 0 72.534858 87.112821"
   version="1.1"
   id="svg1"
   xml:space="preserve"
   inkscape:version="1.4.3 (fcd0343856, 2026-01-01)"
   sodipodi:docname="eduly_logo.svg"
   xmlns:inkscape="http://www.inkscape.org/namespaces/inkscape"
   xmlns:sodipodi="http://sodipodi.sourceforge.net/DTD/sodipodi-0.dtd"
   xmlns:xlink="http://www.w3.org/1999/xlink"
   xmlns="http://www.w3.org/2000/svg"
   xmlns:svg="http://www.w3.org/2000/svg"><sodipodi:namedview
     id="namedview1"
     pagecolor="#ffffff"
     bordercolor="#000000"
     borderopacity="0.25"
     inkscape:showpageshadow="2"
     inkscape:pageopacity="0.0"
     inkscape:pagecheckerboard="0"
     inkscape:deskcolor="#d1d1d1"
     inkscape:document-units="mm"
     showguides="true"
     inkscape:zoom="1.0116647"
     inkscape:cx="484.35022"
     inkscape:cy="50.906197"
     inkscape:window-width="1920"
     inkscape:window-height="1043"
     inkscape:window-x="1920"
     inkscape:window-y="0"
     inkscape:window-maximized="1"
     inkscape:current-layer="layer1" /><defs
     id="defs1"><linearGradient
       id="linearGradient49"
       inkscape:collect="always"><stop
         style="stop-color:#3db84d;stop-opacity:1"
         offset="0"
         id="stop49" /><stop
         style="stop-color:#78cc37;stop-opacity:1"
         offset="1"
         id="stop50" /></linearGradient><linearGradient
       id="linearGradient40"
       inkscape:collect="always"><stop
         style="stop-color:#3dae4a;stop-opacity:1"
         offset="0"
         id="stop40" /><stop
         style="stop-color:#94c633;stop-opacity:1"
         offset="1"
         id="stop41" /></linearGradient><linearGradient
       id="linearGradient37"
       inkscape:collect="always"><stop
         style="stop-color:#e93605;stop-opacity:1"
         offset="0"
         id="stop37" /><stop
         style="stop-color:#f97c05;stop-opacity:1"
         offset="1"
         id="stop38" /></linearGradient><linearGradient
       id="linearGradient32"
       inkscape:collect="always"><stop
         style="stop-color:#fe8313;stop-opacity:1"
         offset="0"
         id="stop32" /><stop
         style="stop-color:#fcac17;stop-opacity:1"
         offset="1"
         id="stop33" /></linearGradient><linearGradient
       id="linearGradient7-1"><stop
         style="stop-color:#000000;stop-opacity:1;"
         offset="0"
         id="stop11" /><stop
         style="stop-color:#000000;stop-opacity:0;"
         offset="1"
         id="stop12" /></linearGradient><clipPath
       clipPathUnits="userSpaceOnUse"
       id="clipPath1"><rect
         style="fill:#666666;stroke-width:0.264583"
         id="rect2"
         width="256.82504"
         height="108.27451"
         x="4.7075877"
         y="66.429291" /></clipPath><linearGradient
       inkscape:collect="always"
       xlink:href="#linearGradient32"
       id="linearGradient33"
       x1="60.448689"
       y1="-22.310944"
       x2="60.514072"
       y2="-44.998901"
       gradientUnits="userSpaceOnUse"
       gradientTransform="translate(12.0305,86.044241)" /><linearGradient
       inkscape:collect="always"
       xlink:href="#linearGradient37"
       id="linearGradient38"
       x1="58.438229"
       y1="-33.752666"
       x2="57.968441"
       y2="-61.677322"
       gradientUnits="userSpaceOnUse"
       gradientTransform="matrix(1,0,0,1.016481,27.97,101.01413)" /><linearGradient
       inkscape:collect="always"
       xlink:href="#linearGradient40"
       id="linearGradient41"
       x1="23.381235"
       y1="-86.296921"
       x2="23.242548"
       y2="-115.14623"
       gradientUnits="userSpaceOnUse"
       gradientTransform="translate(18.69442,155.84453)" /><linearGradient
       inkscape:collect="always"
       xlink:href="#linearGradient49"
       id="linearGradient50"
       x1="102.39766"
       y1="-156.59808"
       x2="110.07232"
       y2="-156.59808"
       gradientUnits="userSpaceOnUse"
       gradientTransform="translate(-59.57823,165.18049)" /></defs><g
     inkscape:label="Layer 1"
     inkscape:groupmode="layer"
     id="layer1"
     transform="translate(10.099333,-4.8375306)"><g
       id="g50"><g
         id="g48"
         transform="translate(-29.628272,7.9402271)"><path
           id="rect30"
           style="fill:url(#linearGradient33);stroke:none;stroke-width:0.465"
           d="M 57.76798,49.610536 C 64.82936,39.672295 85.35967,38.364632 85.35967,38.364632 l -1.17689,25.303283 c 0,0 -17.58807,-1.176897 -26.48018,5.557568 z"
           sodipodi:nodetypes="ccccc" /><path
           id="rect40"
           style="fill:url(#linearGradient41);stroke-width:0.465"
           d="m 32.55168,40.32844 c 0,0 13.252494,0.07235 23.053864,9.31893 L 55.39072,69.177746 C 52.75545,67.929459 47.901,64.045906 29.87017,64.138366 l 0.10678,-9.563376 c 0,0 2.67583,0.6298 4.10905,-3.0226 l 0.0592,-8.81594 z"
           sodipodi:nodetypes="cccccccc" /><path
           id="rect42"
           style="fill:#0063b5;fill-opacity:1;stroke-width:0.465"
           d="m 29.77802,64.216637 c 0,0 15.1465,-1.963182 27.04623,5.686648 7.97675,-7.715219 27.11592,-6.305156 27.11592,-6.305156 l 0.88896,0.335599 0.9174,0.387495 c 0.76264,0.715219 0.37451,1.690727 0.27791,2.749864 l -0.40736,0.17143 c -18.18842,4.62755 -17.86321,3.34408 -35.31994,16.516067 -0.76862,0.722389 -1.9624,-0.251287 -1.39027,-1.152833 l 0.7827,-6.848504 c 0.3923,-3.72684 -13.12183,-5.831413 -21.42549,-8.969803 z"
           sodipodi:nodetypes="cccccccccccc" /><path
           id="rect33"
           style="fill:url(#linearGradient38);stroke-width:0.49959"
           d="m 83.73865,39.776844 c 0.37595,-1.76121 3.498,-2.857812 4.51144,0 l -0.13077,24.856317 c -0.37595,4.037491 -4.60951,2.72489 -4.38067,0 z"
           sodipodi:nodetypes="ccccc" /><path
           id="rect33-1"
           style="fill:#007d78;fill-opacity:1;stroke-width:0.33997"
           d="m 26.69807,54.238546 c 0.006,0.01387 4.51144,0 4.51144,0 l -0.13077,11.510383 c -0.37595,1.869666 -4.60951,1.261833 -4.38067,0 z"
           sodipodi:nodetypes="ccccc" /><g
           id="g47"
           transform="translate(19.644703,181.62688)"><g
             id="g46"><path
               id="rect38"
               style="fill:none;stroke-width:0.465"
               d="m 13.111277,-142.22366 c 0,0 12.226651,0.7846 22.818723,9.41518 l 0.130766,19.87648 c 0,0 -8.434427,-6.14602 -25.826348,-5.36142 l -0.134642,-9.5463 c 2.103596,0.16182 3.806717,-1.41835 4.107231,-2.96715 l 0.02646,-8.97067 z"
               sodipodi:nodetypes="cccccccc" /><path
               id="rect39"
               style="fill:none;stroke-width:0.465"
               d="m 13.026746,-142.04667 c 0,0 13.945762,0.93452 22.510956,9.36895 l 0.457682,19.61495 c -2.172945,-1.34075 -9.711721,-5.97231 -25.795978,-5.12233 l -0.123707,-9.54363 c 1.386986,0.41609 3.783714,-1.00246 4.292275,-2.94424 l 0.181735,-8.67383 z"
               sodipodi:nodetypes="cccccccc" /><path
               id="rect43"
               style="fill:#006cbd;fill-opacity:1;stroke-width:0.465"
               d="M 0.87340688,-158.3733 34.101536,-173.01516 c 0.975769,-0.41152 1.363998,-0.4776 2.63476,-0.0717 l 35.012455,14.45201 c 0.956702,0.74791 0.885748,2.09234 -0.189658,2.69683 l -34.790334,10.05289 -23.345757,-6.97251 24.051675,-7.18244 c 2.035994,-1.99935 -1.162585,-2.18288 -2.522345,-1.63013 l -25.0501521,8.30002 c 0,0 -0.2729481,0.0969 -0.3494138,0.20906 -0.104918,0.15386 -0.091945,0.55107 -0.091945,0.55107 l -0.2621628,8.25379 -2.7672666,0.0989 -0.161974,-10.55493 -5.98423003,-1.79568 c -0.610564,-0.54917 -0.604955,-1.281 0.58821901,-1.76534 z"
               sodipodi:nodetypes="ccccccccccaccccccc" /><path
               id="rect44"
               style="fill:#005bad;fill-opacity:1;stroke-width:0.465"
               d="m 13.438195,-152.8614 23.333054,6.9633 23.219758,-6.77837 0.184932,6.00652 c 0,0 -12.38243,1.32039 -23.108457,10.3358 -10.125,-8.46062 -23.467472,-9.54985 -23.467472,-9.54985 l 0.02312,-5.44356 c -1.140661,-0.51805 -0.572864,-1.53736 -0.184571,-1.53933 l -3.64e-4,0.005"
               sodipodi:nodetypes="ccccccccc" /><rect
               style="fill:#f44e0a;fill-opacity:1;stroke:none;stroke-width:0.465;stroke-dasharray:none;stroke-opacity:1"
               id="rect45"
               width="2.5744619"
               height="3.8167419"
               x="6.5164013"
               y="-144.40634"
               ry="0.22884107" /><rect
               style="fill:#fdad1c;fill-opacity:1;stroke:none;stroke-width:0.513255;stroke-dasharray:none;stroke-opacity:1"
               id="rect46"
               width="6.422204"
               height="9.1770267"
               x="4.715529"
               y="-140.75125"
               ry="1.5545352"
               rx="1.5545352" /></g></g></g><rect
         style="fill:url(#linearGradient50);stroke:none;stroke-width:0.485943;stroke-dasharray:none;stroke-opacity:1"
         id="rect49"
         width="7.6746573"
         height="7.4897261"
         x="42.819427"
         y="4.8375306"
         ry="1.3279305" /><rect
         style="fill:#f6580a;fill-opacity:1;stroke:none;stroke-width:0.360257;stroke-dasharray:none;stroke-opacity:1"
         id="rect49-3"
         width="5.615088"
         height="5.6263061"
         x="33.968277"
         y="11.724112"
         ry="0.99754554" /><rect
         style="fill:#92c735;fill-opacity:1;stroke:none;stroke-width:0.204915;stroke-dasharray:none;stroke-opacity:1"
         id="rect49-3-6"
         width="3.2419302"
         height="3.1528471"
         x="42.535851"
         y="18.894707"
         ry="0.55900067" /><rect
         style="fill:#fec21b;fill-opacity:1;stroke:none;stroke-width:0.399029;stroke-dasharray:none;stroke-opacity:1"
         id="rect49-3-6-2"
         width="6.2239509"
         height="6.2273335"
         x="49.390518"
         y="16.348913"
         ry="1.104108" /></g></g></svg>
